<svg width="24" height="24" viewBox="0 0 24 24" fill="none" xmlns="http://www.w3.org/2000/svg">
<g clip-path="url(#clip0_202_130)">
<path d="M11.1753 1.25831C10.7228 1.26394 10.2882 1.38441 9.74858 1.58934L2.37598 4.26122C1.39236 4.61981 1.36409 4.81594 1.32861 5.82122L0.981453 16.7916C0.924875 18.0813 0.950797 18.3472 2.0713 18.8334L10.7799 22.6495C11.6864 23.0381 12.2755 23.0084 12.898 22.8004L21.4263 20.1505C22.4552 19.8086 22.6001 19.6993 22.6392 18.4234L22.9995 6.69741C23.0305 5.88319 22.7338 5.53983 22.1192 5.30873L12.7061 1.61133C12.0978 1.36083 11.6278 1.25259 11.1753 1.25836L11.1753 1.25831ZM11.2134 2.42433C12.3214 2.42184 13.3492 2.81967 15.3325 3.5903C19.8112 5.33044 21.5064 6.11217 18.5991 7.24359C15.1302 8.59369 12.5909 9.35836 10.5235 8.45362L5.31894 6.17578C3.69847 5.4667 3.22409 4.88859 6.15533 3.82762C8.76345 2.88356 10.0339 2.42691 11.2134 2.42433ZM13.3096 4.47511C11.515 4.49395 10.7181 5.46909 10.6465 6.30023C10.6055 6.77517 10.7847 7.21898 11.228 7.5307C11.6712 7.84242 12.4165 8.0257 13.5235 7.80905C15.2024 7.48045 16.408 7.1033 17.1563 6.73823C17.5304 6.5557 17.7874 6.37556 17.9297 6.22992C18.072 6.08428 18.0916 5.99827 18.0909 5.94867C18.0901 5.89912 18.0702 5.82328 17.9356 5.69527C17.8009 5.56725 17.5592 5.41214 17.2221 5.26608C16.5482 4.97391 15.4992 4.70934 14.1417 4.5292C13.8438 4.48973 13.566 4.47234 13.3096 4.47506L13.3096 4.47511ZM2.77737 6.28125C3.26356 6.26766 4.14692 6.61875 5.77297 7.34325C12.3788 10.2863 12.3598 10.4312 11.9122 16.749C11.5474 21.8963 11.4998 21.8982 5.89016 19.5278C2.46125 18.0789 1.82112 17.6129 1.89702 15.3574L2.15333 7.7197C2.18492 6.78061 2.22636 6.29667 2.77737 6.28125ZM20.6807 7.72997C22.0482 7.71197 22.0448 9.04598 21.9346 12.6636C21.7416 18.9979 21.5104 19.2347 16.292 20.8067C12.9911 21.8009 12.4722 22.0073 12.5903 20.2427L13.106 12.5479C13.2567 10.2963 13.4616 10.1334 17.5503 8.61473C19.0186 8.06944 20.0128 7.73883 20.6806 7.73001L20.6807 7.72997ZM19.7227 9.63722C19.7071 9.63712 19.6911 9.63792 19.6758 9.63862C19.4311 9.65095 19.1965 9.76847 19.0107 10.0327C18.8251 10.297 18.6915 10.7222 18.7442 11.3408C18.812 12.1393 18.5329 13.1273 18.0337 14.0098C17.5345 14.8923 16.7915 15.6931 15.7925 15.8292C14.4271 16.0152 13.8045 16.9345 13.7534 17.8008C13.7278 18.234 13.8522 18.646 14.1138 18.9537C14.3753 19.2614 14.7741 19.485 15.3882 19.5176C17.3169 19.62 18.732 19.0129 19.6817 17.6822C20.6314 16.3514 21.1065 14.2247 20.8946 11.2793C20.8066 10.057 20.2051 9.63975 19.7227 9.63726V9.63722ZM8.17972 10.0518C8.14953 10.0518 8.12266 10.0547 8.09909 10.0605C8.0052 10.0837 7.92636 10.1323 7.83402 10.2862C7.74434 10.4355 7.66114 10.6901 7.62748 11.0522L7.62448 11.083C7.55942 11.8673 7.24489 12.4237 6.78805 12.7266C6.33125 13.0294 5.81333 13.0926 5.32906 13.1529C4.8448 13.2132 4.38327 13.2649 4.00925 13.4224C3.63533 13.5799 3.33612 13.8152 3.09669 14.3496C2.75919 15.1032 2.76186 15.6634 2.95025 16.1572C3.13859 16.6512 3.545 17.0997 4.10745 17.5049C5.23236 18.3154 6.93261 18.9091 8.27492 19.4663C8.80864 19.6879 9.23567 19.7703 9.55377 19.7535C9.87186 19.7367 10.0824 19.6399 10.2745 19.4459C10.6586 19.0578 10.9334 18.1478 10.9776 16.7579C11.0725 13.7756 10.0945 11.5883 9.16559 10.6231C8.75928 10.2009 8.39122 10.0516 8.17981 10.0518L8.17972 10.0518ZM16.815 10.3711C16.7705 10.371 16.7247 10.3727 16.6758 10.3755C15.0134 10.4688 14.4035 10.9786 14.2149 11.5034C14.0263 12.0282 14.2536 12.7723 14.7232 13.3681C15.2617 14.0515 15.6883 14.1057 16.1499 13.9439C16.6115 13.7819 17.1128 13.2825 17.4332 12.6825C17.7535 12.0825 17.879 11.3983 17.7701 10.9819C17.7156 10.7737 17.6227 10.634 17.4668 10.5307C17.3305 10.4403 17.1259 10.3719 16.815 10.371V10.3711Z" fill="#0F67FE"/>
</g>
<defs>
<clipPath id="clip0_202_130">
<rect width="24" height="24" fill="white"/>
</clipPath>
</defs>
</svg>
