<svg width="24" height="24" viewBox="0 0 24 24" fill="none" xmlns="http://www.w3.org/2000/svg">
<g clip-path="url(#clip0_202_121)">
<path d="M3.66898 17.8013L3.67198 17.799C0.722978 14.667 0.776978 9.7215 3.83398 6.66375C5.18398 5.31375 6.97648 4.48125 8.87398 4.30875C9.83076 4.22508 10.7279 3.80838 11.409 3.13125L11.544 2.99625C13.4865 1.05375 16.623 1.00275 18.6285 2.8425L18.6322 2.83875L18.7897 2.99625L20.9947 5.20125C22.9897 7.19625 22.9897 10.4512 20.9947 12.4462L20.8597 12.5812C20.1847 13.2637 19.7647 14.1638 19.6822 15.1163C19.5172 17.0213 18.6847 18.8138 17.3347 20.1638C14.2147 23.2763 9.14473 23.2763 6.03223 20.1638L3.66898 17.8013ZM3.69148 8.70375C2.08498 11.28 2.35948 14.6963 4.51498 16.9845C4.56198 17.0345 4.61023 17.0843 4.65973 17.1338C5.45926 17.9336 6.4452 18.522 7.52875 18.8459C8.61229 19.1698 9.7594 19.2191 10.8667 18.9893C11.6697 18.8231 12.4357 18.512 13.1272 18.0713C13.4947 17.8388 13.6372 17.3663 13.4497 16.9688L11.3122 12.4838C10.8898 11.6086 10.1805 10.9046 9.30223 10.4887L4.79473 8.37375C4.39723 8.19375 3.92398 8.32875 3.69148 8.70375ZM13.7647 15.8438C13.826 15.9738 13.9189 16.0865 14.0349 16.1715C14.1509 16.2565 14.2864 16.311 14.4289 16.3302C14.5714 16.3494 14.7165 16.3325 14.8508 16.2812C14.9852 16.2299 15.1045 16.1458 15.198 16.0365C15.8315 15.0713 16.2154 13.9639 16.3155 12.8137C16.4205 11.5837 16.9605 10.4287 17.8305 9.55125L17.9655 9.41625C18.3446 9.03799 18.6427 8.5865 18.8416 8.08931C19.0406 7.59211 19.1362 7.05961 19.1227 6.52425C19.11 5.98345 18.9859 5.45107 18.7583 4.96034C18.5307 4.46961 18.2043 4.03104 17.7997 3.672C16.2337 2.28075 13.824 2.382 12.3322 3.87375L12.2422 3.96375C11.3656 4.83504 10.211 5.37117 8.97973 5.47875C7.85473 5.57625 6.77473 5.94375 5.82973 6.54375C5.25973 6.91125 5.31223 7.76625 5.92723 8.05125L9.61723 9.79875C9.62123 9.79925 9.62523 9.8005 9.62923 9.8025C9.63323 9.8045 9.63673 9.80575 9.63973 9.80625C10.3672 10.1438 11.2222 10.0163 11.7922 9.44625L12.3472 8.89125C12.6997 8.53875 12.8347 8.02125 12.6922 7.54875C12.5697 7.1422 12.5594 6.7101 12.6624 6.29817C12.7654 5.88625 12.9778 5.50983 13.2772 5.20875C13.5031 4.98161 13.7734 4.80344 14.0711 4.68533C14.3689 4.56723 14.6878 4.51172 15.008 4.52228C15.3281 4.53283 15.6427 4.60922 15.932 4.74668C16.2214 4.88414 16.4793 5.07973 16.6897 5.32125C17.4622 6.19125 17.4622 7.52625 16.6897 8.40375C16.0522 9.12375 15.0922 9.35625 14.2522 9.10125C14.0178 9.02879 13.7681 9.02193 13.5301 9.08143C13.2921 9.14093 13.0749 9.26452 12.9022 9.43875L12.3547 9.98625C11.7847 10.5562 11.6572 11.4187 12.0022 12.1463C12.0022 12.1498 12.0037 12.1523 12.0067 12.1538C12.0087 12.1553 12.01 12.1578 12.0105 12.1613L13.7647 15.8438ZM13.9972 5.91375C13.4947 6.41625 13.4947 7.22625 13.9972 7.72875C14.4997 8.23125 15.3172 8.23125 15.8197 7.73625C16.3222 7.23375 16.3222 6.41625 15.8197 5.91375C15.5779 5.67239 15.2502 5.53683 14.9085 5.53683C14.5668 5.53683 14.2391 5.67239 13.9972 5.91375Z" fill="#951334"/>
</g>
<defs>
<clipPath id="clip0_202_121">
<rect width="24" height="24" fill="white"/>
</clipPath>
</defs>
</svg>
