<svg width="48" height="48" viewBox="0 0 48 48" fill="none" xmlns="http://www.w3.org/2000/svg">
<g clip-path="url(#clip0_195_91)">
<path d="M42.8571 6H5.1428C4.23349 6 3.36142 6.36122 2.71844 7.00421C2.07546 7.64719 1.71423 8.51926 1.71423 9.42857V38.5714C1.71423 39.4807 2.07546 40.3528 2.71844 40.9958C3.36142 41.6388 4.23349 42 5.1428 42H42.8571C43.7664 42 44.6385 41.6388 45.2815 40.9958C45.9244 40.3528 46.2857 39.4807 46.2857 38.5714V9.42857C46.2857 8.51926 45.9244 7.64719 45.2815 7.00421C44.6385 6.36122 43.7664 6 42.8571 6Z" stroke="#242E49" stroke-width="3" stroke-linecap="round" stroke-linejoin="round"/>
<path d="M1.71423 10.2857L21.8057 22.368C22.4228 22.7314 23.1977 22.9269 23.9999 22.9269C24.8022 22.9269 25.5771 22.7314 26.1942 22.368L46.2857 10.2857" stroke="#242E49" stroke-width="3" stroke-linecap="round" stroke-linejoin="round"/>
</g>
<defs>
<clipPath id="clip0_195_91">
<rect width="48" height="48" fill="white"/>
</clipPath>
</defs>
</svg>
