<svg width="48" height="48" viewBox="0 0 48 48" fill="none" xmlns="http://www.w3.org/2000/svg">
<g clip-path="url(#clip0_195_75)">
<path d="M29.5457 42.9612C31.4913 44.2175 33.8095 44.7646 36.1105 44.5106C38.4116 44.2566 40.5551 43.217 42.1809 41.5665L43.602 40.1781C44.2236 39.5388 44.5714 38.6818 44.5714 37.7895C44.5714 36.8973 44.2236 36.0403 43.602 35.401L37.5693 29.4194C36.9364 28.7989 36.0859 28.4514 35.2002 28.4514C34.3145 28.4514 33.464 28.7989 32.8311 29.4194C32.1928 30.042 31.3371 30.3903 30.4462 30.3903C29.5553 30.3903 28.6995 30.042 28.0613 29.4194L18.5881 19.9319C18.2728 19.6195 18.0224 19.2475 17.8516 18.8375C17.6808 18.4275 17.5928 17.9877 17.5928 17.5434C17.5928 17.0992 17.6808 16.6593 17.8516 16.2493C18.0224 15.8394 18.2728 15.4674 18.5881 15.1549C19.2077 14.521 19.5546 13.6693 19.5546 12.7822C19.5546 11.8952 19.2077 11.0434 18.5881 10.4096L12.5838 4.39944C11.9456 3.77692 11.0899 3.42856 10.1989 3.42856C9.308 3.42856 8.45228 3.77692 7.81402 4.39944L6.42453 5.8259C4.77855 7.45407 3.74204 9.59985 3.48902 11.9029C3.23601 14.206 3.7819 16.5262 5.03505 18.4738C11.5744 28.1245 19.8935 36.4358 29.5457 42.9612Z" stroke="#242E49" stroke-width="3" stroke-linecap="round" stroke-linejoin="round"/>
</g>
<defs>
<clipPath id="clip0_195_75">
<rect width="48" height="48" fill="white"/>
</clipPath>
</defs>
</svg>
