<svg width="48" height="48" viewBox="0 0 48 48" fill="none" xmlns="http://www.w3.org/2000/svg">
<g clip-path="url(#clip0_195_101)">
<g clip-path="url(#clip1_195_101)">
<path d="M39.4286 17.1429C39.4286 27.4286 24 39.4286 24 39.4286C24 39.4286 8.57141 27.4286 8.57141 17.1429C8.57141 8.73942 15.5966 1.71428 24 1.71428C32.4034 1.71428 39.4286 8.73942 39.4286 17.1429Z" stroke="#242E49" stroke-width="3" stroke-linecap="round" stroke-linejoin="round"/>
<path d="M37.9782 34.2857H41.1428L46.2857 46.2857H1.71423L6.85709 34.2857H10.0217M23.9999 22.2857C25.3639 22.2857 26.672 21.7439 27.6365 20.7794C28.601 19.8149 29.1428 18.5068 29.1428 17.1429C29.1428 15.7789 28.601 14.4708 27.6365 13.5063C26.672 12.5418 25.3639 12 23.9999 12C22.636 12 21.3279 12.5418 20.3634 13.5063C19.3989 14.4708 18.8571 15.7789 18.8571 17.1429C18.8571 18.5068 19.3989 19.8149 20.3634 20.7794C21.3279 21.7439 22.636 22.2857 23.9999 22.2857Z" stroke="#242E49" stroke-width="3" stroke-linecap="round" stroke-linejoin="round"/>
</g>
</g>
<defs>
<clipPath id="clip0_195_101">
<rect width="48" height="48" fill="white"/>
</clipPath>
<clipPath id="clip1_195_101">
<rect width="48" height="48" fill="white"/>
</clipPath>
</defs>
</svg>
