<svg width="48" height="48" viewBox="0 0 48 48" fill="none" xmlns="http://www.w3.org/2000/svg">
<g clip-path="url(#clip0_195_83)">
<path d="M24 3.01713C12.5657 3.01713 3.01712 12.5828 3.01712 24.0069C3.02152 28.1422 4.2438 32.1847 6.53141 35.6297L3.00684 45.0069L14.7977 42.8743C17.664 44.2705 20.8117 44.9929 24 44.9863C35.4446 44.9931 45.0068 35.4411 45.0068 24.0103C45.0068 12.5931 35.4411 3.01028 24 3.01713Z" stroke="#242E49" stroke-width="3" stroke-linecap="round" stroke-linejoin="round"/>
<path d="M25.1554 33.2571C27.9977 35.0777 30.9566 33.7508 33.0206 32.2114C34.4434 31.1486 34.3954 29.1017 33.1817 27.8057L30.7817 25.2514C29.8731 26.16 28.0971 26.6126 26.8663 26.2354C24.216 25.4297 23.1051 24.0514 22.2034 22.6457C21.1714 21.0343 22.3406 18.6274 23.2491 17.7188L20.5749 15.2777C19.4469 14.2491 17.736 14.0777 16.752 15.2434C14.8046 17.5508 13.5977 21.0583 15.0274 23.2903C17.5989 27.2983 21.1474 30.6857 25.1554 33.2571Z" stroke="#242E49" stroke-width="3" stroke-linecap="round" stroke-linejoin="round"/>
</g>
<defs>
<clipPath id="clip0_195_83">
<rect width="48" height="48" fill="white"/>
</clipPath>
</defs>
</svg>
