<svg width="48" height="48" viewBox="0 0 48 48" fill="none" xmlns="http://www.w3.org/2000/svg">
<g clip-path="url(#clip0_194_9)">
<g clip-path="url(#clip1_194_9)">
<path d="M25.2138 45.888C24.4256 46.1892 23.5539 46.1892 22.7658 45.888C16.6178 43.5288 11.3305 39.3596 7.60236 33.9315C3.87426 28.5034 1.88091 22.0719 1.88575 15.4869V5.28686C1.88485 4.83996 1.9722 4.39729 2.14281 3.98423C2.31341 3.57118 2.5639 3.19588 2.87991 2.87987C3.19591 2.56387 3.57121 2.31338 3.98426 2.14277C4.39732 1.97217 4.84 1.88481 5.28689 1.88572H42.6926C43.1392 1.88527 43.5815 1.97296 43.9942 2.14376C44.4068 2.31457 44.7817 2.56513 45.0974 2.88109C45.413 3.19705 45.6632 3.5722 45.8336 3.98503C46.004 4.39786 46.0912 4.84025 46.0903 5.28686V15.4869C46.0952 22.0719 44.1018 28.5034 40.3737 33.9315C36.6456 39.3596 31.3617 43.5288 25.2138 45.888Z" stroke="#0F67FE" stroke-width="3" stroke-linecap="round" stroke-linejoin="round"/>
<path d="M34.2858 13.7143L20.5715 29.1429L13.7144 24" stroke="#0F67FE" stroke-width="3" stroke-linecap="round" stroke-linejoin="round"/>
</g>
</g>
<defs>
<clipPath id="clip0_194_9">
<rect width="48" height="48" fill="white"/>
</clipPath>
<clipPath id="clip1_194_9">
<rect width="48" height="48" fill="white"/>
</clipPath>
</defs>
</svg>
