<svg width="48" height="48" viewBox="0 0 48 48" fill="none" xmlns="http://www.w3.org/2000/svg">
<g clip-path="url(#clip0_194_49)">
<g clip-path="url(#clip1_194_49)">
<path d="M27.7679 35.9486C29.7478 33.8555 32.4675 32.6194 35.3463 32.5041C38.2251 32.3888 41.0349 33.4034 43.1759 35.3314M35.7873 27.4286C34.3233 27.4286 32.9193 26.847 31.8841 25.8118C30.8489 24.7766 30.2673 23.3726 30.2673 21.9086C30.2673 20.4446 30.8489 19.0406 31.8841 18.0054C32.9193 16.9702 34.3233 16.3886 35.7873 16.3886C37.2513 16.3886 38.6553 16.9702 39.6905 18.0054C40.7257 19.0406 41.3073 20.4446 41.3073 21.9086C41.3073 23.3726 40.7257 24.7766 39.6905 25.8118C38.6553 26.847 37.2513 27.4286 35.7873 27.4286ZM17.9279 25.656C16.1138 25.656 14.374 24.9354 13.0913 23.6526C11.8085 22.3699 11.0879 20.6301 11.0879 18.816C11.0879 17.0019 11.8085 15.2622 13.0913 13.9794C14.374 12.6967 16.1138 11.976 17.9279 11.976C19.742 11.976 21.4818 12.6967 22.7645 13.9794C24.0472 15.2622 24.7679 17.0019 24.7679 18.816C24.7679 20.6301 24.0472 22.3699 22.7645 23.6526C21.4818 24.9354 19.742 25.656 17.9279 25.656Z" stroke="#0F67FE" stroke-width="3" stroke-linecap="round" stroke-linejoin="round"/>
<path d="M30.744 45.192C30.4011 41.1051 29.3829 38.4206 28.824 37.4743C27.6506 35.4692 25.9811 33.7997 23.976 32.6263C21.9947 31.4728 19.7441 30.8625 17.4514 30.8571C15.1588 30.8625 12.9082 31.4728 10.9269 32.6263C9.33943 33.552 7.95429 34.8 6.85371 36.2949L6.15771 37.3406" stroke="#0F67FE" stroke-width="3" stroke-linecap="round" stroke-linejoin="round"/>
<path d="M23.9999 46.2857C18.0894 46.2857 12.4209 43.9378 8.24157 39.7584C4.06219 35.579 1.71423 29.9105 1.71423 24C1.71423 18.0895 4.06219 12.421 8.24157 8.24163C12.4209 4.06225 18.0894 1.71429 23.9999 1.71429C29.9105 1.71429 35.5789 4.06225 39.7583 8.24163C43.9377 12.421 46.2857 18.0895 46.2857 24C46.2857 29.9105 43.9377 35.579 39.7583 39.7584C35.5789 43.9378 29.9105 46.2857 23.9999 46.2857Z" stroke="#0F67FE" stroke-width="3" stroke-linecap="round" stroke-linejoin="round"/>
</g>
</g>
<defs>
<clipPath id="clip0_194_49">
<rect width="48" height="48" fill="white"/>
</clipPath>
<clipPath id="clip1_194_49">
<rect width="48" height="48" fill="white"/>
</clipPath>
</defs>
</svg>
