<svg width="48" height="48" viewBox="0 0 48 48" fill="none" xmlns="http://www.w3.org/2000/svg">
<g clip-path="url(#clip0_194_38)">
<g clip-path="url(#clip1_194_38)">
<path d="M1.71423 12H46.2857M42.8571 1.71429H5.1428C4.23349 1.71429 3.36142 2.07552 2.71844 2.7185C2.07546 3.36148 1.71423 4.23355 1.71423 5.14287V42.8571C1.71423 43.7665 2.07546 44.6385 2.71844 45.2815C3.36142 45.9245 4.23349 46.2857 5.1428 46.2857H42.8571C43.7664 46.2857 44.6385 45.9245 45.2815 45.2815C45.9244 44.6385 46.2857 43.7665 46.2857 42.8571V5.14287C46.2857 4.23355 45.9244 3.36148 45.2815 2.7185C44.6385 2.07552 43.7664 1.71429 42.8571 1.71429Z" stroke="#0F67FE" stroke-width="3" stroke-linecap="round" stroke-linejoin="round"/>
<path d="M30.8571 20.5714H37.7142V27.4286" stroke="#0F67FE" stroke-width="3" stroke-linecap="round" stroke-linejoin="round"/>
<path d="M37.7142 20.5714L25.7933 34.4082C25.5961 34.6325 25.331 34.7582 25.0549 34.7582C24.7787 34.7582 24.5136 34.6325 24.3164 34.4082L19.4637 28.7755C19.2665 28.5512 19.0013 28.4255 18.7252 28.4255C18.4491 28.4255 18.1839 28.5512 17.9867 28.7755L10.2856 37.7143" stroke="#0F67FE" stroke-width="3" stroke-linecap="round" stroke-linejoin="round"/>
</g>
</g>
<defs>
<clipPath id="clip0_194_38">
<rect width="48" height="48" fill="white"/>
</clipPath>
<clipPath id="clip1_194_38">
<rect width="48" height="48" fill="white"/>
</clipPath>
</defs>
</svg>
