<svg width="24" height="24" viewBox="0 0 24 24" fill="none" xmlns="http://www.w3.org/2000/svg">
<g clip-path="url(#clip0_188_2)">
<path d="M9.49443 11.2164C9.44283 9.1056 9.78243 6.7056 11.2092 5.2788C12.0408 4.4472 13.2012 3.9864 14.466 3.7668C15.7284 3.546 17.0448 3.5748 18.1272 3.6792C18.6923 3.7287 19.2218 3.97574 19.6227 4.37692C20.0237 4.77809 20.2704 5.30774 20.3196 5.8728C20.424 6.9564 20.4516 8.2728 20.2332 9.5352C20.0136 10.8012 19.5528 11.9616 18.7212 12.7932C17.2932 14.2212 14.8932 14.5608 12.7824 14.5092C12.3495 14.498 11.929 14.6543 11.6086 14.9456C11.2882 15.237 11.0927 15.6408 11.0628 16.0728C10.9452 17.838 10.5924 19.8768 9.72843 21.498C9.68883 21.5712 9.65403 21.5892 9.64203 21.594C9.61666 21.6037 9.58874 21.6046 9.56283 21.5964C9.48483 21.576 9.36723 21.4908 9.33123 21.3024C9.16276 20.3788 8.94728 19.4644 8.68563 18.5628C8.56357 18.1418 8.41282 17.7296 8.23443 17.3292C8.07123 16.9728 7.87203 16.626 7.62363 16.3776C7.37523 16.1292 7.02963 15.93 6.67323 15.7668C6.27245 15.5879 5.85989 15.4368 5.43843 15.3144C4.53685 15.0519 3.62246 14.8357 2.69883 14.6664C2.51043 14.6304 2.42523 14.5128 2.40483 14.4348C2.39664 14.4089 2.39749 14.381 2.40723 14.3556C2.41203 14.3436 2.43123 14.3076 2.50323 14.2692C4.12563 13.4052 6.16323 13.0536 7.92963 12.9372C8.82963 12.8772 9.51603 12.1092 9.49443 11.2164ZM10.3608 4.4304C8.56083 6.2316 8.24163 9.0864 8.29443 11.2464C8.29786 11.3698 8.25364 11.4897 8.17096 11.5813C8.08828 11.6729 7.97349 11.7292 7.85043 11.7384C6.01923 11.8608 3.78243 12.228 1.93923 13.2096C1.32243 13.5396 1.09563 14.166 1.24323 14.7372C1.38723 15.282 1.84923 15.7272 2.47683 15.8448C3.35795 16.0063 4.23028 16.2126 5.09043 16.4628C5.50323 16.5876 5.87283 16.7208 6.17283 16.8588C6.48363 17.0004 6.67683 17.1288 6.77523 17.2272C6.87363 17.3256 7.00083 17.5188 7.14243 17.8284C7.28043 18.1284 7.41243 18.498 7.53843 18.912C7.78803 19.7376 7.99563 20.6928 8.15283 21.5244C8.27043 22.152 8.71563 22.6164 9.25923 22.758C9.83163 22.908 10.458 22.6812 10.7868 22.062C11.7684 20.2212 12.1368 17.9844 12.2604 16.1532C12.2696 16.0301 12.3259 15.9153 12.4175 15.8327C12.5091 15.75 12.6291 15.7058 12.7524 15.7092C14.9124 15.762 17.7684 15.4452 19.5684 13.6428C20.6388 12.5724 21.1716 11.1444 21.4152 9.7416C21.66 8.334 21.624 6.9012 21.5148 5.7576C21.439 4.91512 21.0699 4.12598 20.4719 3.52774C19.8739 2.9295 19.0849 2.56012 18.2424 2.484C17.0988 2.3748 15.666 2.34 14.2608 2.5836C12.8568 2.8272 11.43 3.36 10.3608 4.4304ZM15.9012 5.3988C16.1399 5.3988 16.3688 5.49362 16.5376 5.6624C16.7064 5.83118 16.8012 6.0601 16.8012 6.2988C16.8012 6.53749 16.7064 6.76641 16.5376 6.93519C16.3688 7.10398 16.1399 7.1988 15.9012 7.1988C15.6625 7.1988 15.4336 7.10398 15.2648 6.93519C15.096 6.76641 15.0012 6.53749 15.0012 6.2988C15.0012 6.0601 15.096 5.83118 15.2648 5.6624C15.4336 5.49362 15.6625 5.3988 15.9012 5.3988Z" fill="#5D6A85"/>
</g>
<defs>
<clipPath id="clip0_188_2">
<rect width="24" height="24" fill="white"/>
</clipPath>
</defs>
</svg>
